Coordinates
version=1
nRows=19
nColumns=24
inDegrees=yes

Units are S.I. units (second, meters, Newtons, ...)
Angles are in degrees.

endheader
time	pelvis_tilt	pelvis_list	pelvis_rotation	pelvis_tx	pelvis_ty	pelvis_tz	hip_flexion_r	hip_adduction_r	hip_rotation_r	knee_angle_r	ankle_angle_r	subtalar_angle_r	mtp_angle_r	hip_flexion_l	hip_adduction_l	hip_rotation_l	knee_angle_l	ankle_angle_l	subtalar_angle_l	mtp_angle_l	lumbar_extension	lumbar_bending	lumbar_rotation
      0.58400000	     -3.86708798	      2.86556541	      6.14853816	     -0.83417871	      0.99985193	      0.26426170	     28.84376590	     -1.61111553	     -7.67837950	      2.46005954	      4.07781768	     -0.64681621	      4.44571391	    -12.87103089	      7.02020375	      8.07933865	     -5.92037237	     15.21399539	     -4.53520482	     -4.87068946	     -2.41526632	     -6.59577837	     -7.33611143
      0.58816667	     -3.81598083	      2.70651903	      6.13631832	     -0.82807102	      0.99923609	      0.26426098	     28.94245373	     -1.37416770	     -7.49789696	      1.53254102	      4.24639331	     -0.96364449	      4.47089406	    -13.11825850	      6.83270663	      8.02703465	     -6.24472178	     15.28686783	     -4.52345649	     -4.88033964	     -2.37606038	     -6.37543158	     -7.34888863
      0.59233333	     -3.76322403	      2.54249869	      6.12758884	     -0.82189667	      0.99864023	      0.26427673	     29.01237120	     -1.12668264	     -7.24728250	      0.63132984	      4.28186372	     -1.47160039	      4.52744753	    -13.32585475	      6.63200359	      7.79569628	     -6.66365151	     15.43438745	     -4.24797573	     -4.89060935	     -2.33264908	     -6.16088523	     -7.34968595
      0.59650000	     -3.70293695	      2.36392008	      6.13546906	     -0.81565027	      0.99809811	      0.26425128	     29.07280709	     -0.87664349	     -7.09333762	     -0.30182644	      4.36142997	     -1.80835447	      4.54712218	    -13.56666051	      6.41990821	      7.73152384	     -7.03168326	     15.47383668	     -4.24414602	     -4.88998155	     -2.27288391	     -5.90009003	     -7.36821351
      0.60066667	     -3.64691434	      2.19029471	      6.11751003	     -0.80935321	      0.99754699	      0.26433498	     29.08892067	     -0.59825867	     -6.69303678	     -1.13004242	      4.17091957	     -2.58903532	      4.61759211	    -13.76831283	      6.20380770	      7.44879848	     -7.47360309	     15.60969613	     -3.86618426	     -4.86751565	     -2.22682553	     -5.68698540	     -7.38683904
      0.60483333	     -3.58604248	      2.00488727	      6.11519167	     -0.80298282	      0.99705013	      0.26439005	     29.09251131	     -0.31624600	     -6.37893721	     -1.95965534	      3.99314753	     -3.23667664	      4.69468072	    -13.98499305	      5.97466072	      7.24654527	     -7.89331174	     15.67113686	     -3.62711428	     -4.83091400	     -2.16460483	     -5.44113893	     -7.40806838
      0.60900000	     -3.51653032	      1.81898135	      6.11573999	     -0.79656146	      0.99659355	      0.26445991	     29.06505058	     -0.02782487	     -6.03787760	     -2.74395948	      3.72033496	     -3.95644509	      4.77705297	    -14.20466650	      5.74298198	      7.05432533	     -8.32858460	     15.68738720	     -3.43197503	     -4.77759990	     -2.10548624	     -5.19821131	     -7.43539021
      0.61316667	     -3.47192130	      1.62779831	      6.12711828	     -0.79009088	      0.99614061	      0.26454500	     29.04227902	      0.26616937	     -5.68196324	     -3.47694406	      3.34560216	     -4.73609870	      4.87242073	    -14.38443912	      5.50256946	      6.85100843	     -8.79451740	     15.69595603	     -3.20457630	     -4.70132428	     -2.01267130	     -4.95727853	     -7.47163135
      0.61733333	     -3.41555307	      1.43891912	      6.13766277	     -0.78357275	      0.99574445	      0.26465881	     28.98759544	      0.56550768	     -5.31465261	     -4.15989722	      2.87995415	     -5.55954121	      4.97576699	    -14.57028629	      5.26078358	      6.65204704	     -9.26750686	     15.65255388	     -2.99666264	     -4.60290320	     -1.92543247	     -4.71838604	     -7.50783778
      0.62150000	     -3.35734533	      1.24025158	      6.15358849	     -0.77699593	      0.99538464	      0.26478418	     28.90940408	      0.87709916	     -4.95183524	     -4.78758796	      2.32312616	     -6.41178378	      5.08927542	    -14.75125746	      5.00454690	      6.45832404	     -9.75767178	     15.58197432	     -2.78828379	     -4.48294859	     -1.83174322	     -4.47034993	     -7.54879354
      0.62566667	     -3.31321178	      1.04166206	      6.17761670	     -0.77038066	      0.99504846	      0.26493073	     28.82879498	      1.18935245	     -4.58501353	     -5.36522033	      1.67349896	     -7.30143226	      5.21889435	    -14.90322359	      4.74311037	      6.24930558	    -10.26949893	     15.47926300	     -2.56433705	     -4.33313416	     -1.71497951	     -4.22792968	     -7.59449436
      0.62983333	     -3.27467039	      0.83832658	      6.20951282	     -0.76371793	      0.99474996	      0.26507921	     28.73929048	      1.50303075	     -4.24559764	     -5.90127202	      0.94780173	     -8.18292730	      5.36079609	    -15.03193537	      4.47288874	      6.04156343	    -10.81411438	     15.34352885	     -2.33983199	     -4.15713784	     -1.58413374	     -3.98435314	     -7.64404456
      0.63400000	     -3.24535585	      0.63486452	      6.24888766	     -0.75701834	      0.99448237	      0.26524171	     28.64558108	      1.81452130	     -3.92041585	     -6.39642272	      0.15286481	     -9.06543750	      5.51694177	    -15.14268164	      4.19835263	      5.85385859	    -11.37225361	     15.16784976	     -2.12188260	     -3.95049863	     -1.43682914	     -3.74227186	     -7.69859039
      0.63816667	     -3.22227152	      0.42821982	      6.29178153	     -0.75027683	      0.99425317	      0.26541642	     28.54753369	      2.12589756	     -3.61600336	     -6.86014610	     -0.70089828	     -9.89940245	      5.67538494	    -15.22894024	      3.91619656	      5.66155140	    -11.95613352	     14.95239045	     -1.87315129	     -3.72423303	     -1.27724071	     -3.48100621	     -7.75513248
      0.64233333	     -3.17893005	      0.22600717	      6.34307205	     -0.74353246	      0.99409394	      0.26560439	     28.42004978	      2.43127404	     -3.34914226	     -7.29980323	     -1.56201173	    -10.74751139	      5.86368010	    -15.31230143	      3.62857500	      5.43932033	    -12.58571420	     14.69946269	     -1.65045398	     -3.44009578	     -1.14063072	     -3.26491137	     -7.80815669
      0.64650000	     -3.18572008	      0.02377009	      6.39896742	     -0.73675339	      0.99389838	      0.26580646	     28.35661709	      2.72082884	     -3.15547637	     -7.75555673	     -2.43647846	    -11.43792523	      8.05406347	    -15.29957670	      3.32868068	      5.11677871	    -13.28310470	     14.36983954	     -1.24002366	     -0.09433523	     -0.93023137	     -3.04112145	     -7.84268129
      0.65066667	     -3.14202005	     -0.18142730	      6.46899802	     -0.72995941	      0.99385634	      0.26597730	     28.21273535	      3.01311128	     -2.95059550	     -8.15741443	     -3.33239809	    -12.18757002	      8.05562348	    -15.36356352	      3.03691622	      5.02255252	    -13.93500924	     13.97791603	     -1.19003159	     -0.00936341	     -0.79307626	     -2.80191166	     -7.92984771
      0.65483333	     -3.12045720	     -0.38409755	      6.53736038	     -0.72315127	      0.99381432	      0.26618453	     28.10048016	      3.29837524	     -2.77956584	     -8.57899161	     -4.17487522	    -12.86670735	      8.08091570	    -15.36231649	      2.73430629	      4.81666813	    -14.65808140	     13.60276183	     -0.94248459	      0.14327032	     -0.61727641	     -2.57882305	     -7.98776595
      0.65900000	     -3.10746529	     -0.58873852	      6.61414518	     -0.71633626	      0.99381859	      0.26638793	     27.99770579	      3.57534470	     -2.64349477	     -9.00652767	     -4.97199744	    -13.48317669	      8.12360799	    -15.32100324	      2.42225869	      4.60099907	    -15.42895169	     13.17308769	     -0.67313527	      0.36748822	     -0.43292631	     -2.35464663	     -8.05028094
